<svg id="Group_2" data-name="Group 2" xmlns="http://www.w3.org/2000/svg" width="35" height="35" viewBox="0 0 35 35">
  <path id="ic_control_point_24px" d="M21.25,10.75h-3.5v7h-7v3.5h7v7h3.5v-7h7v-3.5h-7ZM19.5,2A17.5,17.5,0,1,0,37,19.5,17.529,17.529,0,0,0,19.5,2Zm0,31.5a14,14,0,1,1,14-14A14.019,14.019,0,0,1,19.5,33.5Z" transform="translate(-2 -2)" fill="#7c21ff"/>
  <path id="Path_3" data-name="Path 3" d="M-495.26,524.687v7.032h-7.14v3.526h7.14v7.229h3.57l.081-7.162h6.881v-3.593h-6.962v-7.033" transform="translate(511 -516)" fill="#e53a88"/>
</svg>
