<svg xmlns="http://www.w3.org/2000/svg" width="35" height="35" viewBox="0 0 35 35">
  <g id="path" transform="translate(-49.875 -329)">
    <path id="ic_library_music_24px" d="M33.388,2H12.463A3.439,3.439,0,0,0,8.975,5.368V25.573a3.439,3.439,0,0,0,3.488,3.368H33.388a3.439,3.439,0,0,0,3.488-3.368V5.368A3.439,3.439,0,0,0,33.388,2ZM29.9,10.419H24.669V19.68a4.362,4.362,0,1,1-4.359-4.21,4.366,4.366,0,0,1,2.616.859V7.051H29.9ZM5.488,8.735H2V32.308a3.439,3.439,0,0,0,3.488,3.368H29.9V32.308H5.488Z" transform="translate(48 327)" fill="#e53a88"/>
    <path id="Path_2" data-name="Path 2" d="M-519.016,143.975l-.094,28.572s-.369,1.488,2.531,3.578,29.656.813,29.656.813l-.134-4.982-27.9-.018L-515,143.975Z" transform="translate(569 186.676)" fill="#7c21ff"/>
  </g>
</svg>
