<svg xmlns="http://www.w3.org/2000/svg" width="36.958" height="38.326" viewBox="0 0 36.958 38.326"><g id="controls" transform="translate(-1)"><path id="Path_17" fill="#fff" d="M5.791,9.582a4.8,4.8,0,0,0,4.736-4.106H37.273a.684.684,0,1,0,0-1.369H10.527A4.788,4.788,0,1,0,5.791,9.582Zm0-8.213A3.422,3.422,0,1,1,2.369,4.791,3.426,3.426,0,0,1,5.791,1.369Z" data-name="Path 17"/><path id="Path_18" fill="#fff" d="M33.167,42a4.8,4.8,0,0,0-4.736,4.106H1.684a.684.684,0,0,0,0,1.369H28.431A4.788,4.788,0,1,0,33.167,42Zm0,8.213a3.422,3.422,0,1,1,3.422-3.422A3.426,3.426,0,0,1,33.167,50.213Z" data-name="Path 18" transform="translate(0 -13.255)"/><path id="Path_19" fill="#fff" d="M37.273,24.976H24.521a4.931,4.931,0,0,0-9.8,0H1.684a.684.684,0,0,0,0,1.369H14.763a4.926,4.926,0,0,0,9.715,0h12.8a.684.684,0,0,0,0-1.369ZM19.62,29.082a3.564,3.564,0,1,1,3.564-3.564A3.568,3.568,0,0,1,19.62,29.082Z" data-name="Path 19" transform="translate(0 -6.497)"/></g></svg>