<svg xmlns="http://www.w3.org/2000/svg" width="29.414" height="31.375" viewBox="0 0 29.414 31.375">
  <g id="download" transform="translate(-16)">
    <g id="Group_8" data-name="Group 8" transform="translate(22.863)">
      <g id="Group_7" data-name="Group 7">
        <path id="Path_20" data-name="Path 20" d="M143.6,14.3a.978.978,0,0,0-.892-.575h-3.922V.98A.981.981,0,0,0,137.8,0h-3.922a.981.981,0,0,0-.98.98V13.727h-3.922a.98.98,0,0,0-.737,1.626L135.1,23.2a.978.978,0,0,0,1.475,0l6.863-7.844A.978.978,0,0,0,143.6,14.3Z" transform="translate(-127.998)" fill="#fff"/>
      </g>
    </g>
    <g id="Group_10" data-name="Group 10" transform="translate(16 21.57)">
      <g id="Group_9" data-name="Group 9">
        <path id="Path_21" data-name="Path 21" d="M41.492,352v5.883H19.922V352H16v7.844a1.96,1.96,0,0,0,1.961,1.961H43.453a1.959,1.959,0,0,0,1.961-1.961V352Z" transform="translate(-16 -352)" fill="#fff"/>
      </g>
    </g>
  </g>
</svg>
