<svg id="ic_favorite_border_24px" xmlns="http://www.w3.org/2000/svg" width="35" height="32.112" viewBox="0 0 35 32.112">
  <path id="ic_favorite_border_24px-2" data-name="ic_favorite_border_24px" d="M27.375,3A10.48,10.48,0,0,0,19.5,6.658,10.48,10.48,0,0,0,11.625,3,9.532,9.532,0,0,0,2,12.625C2,19.24,7.95,24.63,16.962,32.82L19.5,35.112l2.538-2.31C31.05,24.63,37,19.24,37,12.625A9.532,9.532,0,0,0,27.375,3Zm-7.7,27.212-.175.175-.175-.175C10.995,22.67,5.5,17.683,5.5,12.625A5.981,5.981,0,0,1,11.625,6.5a6.842,6.842,0,0,1,6.247,4.13h3.272a6.8,6.8,0,0,1,6.23-4.13A5.981,5.981,0,0,1,33.5,12.625C33.5,17.683,28.005,22.67,19.675,30.212Z" transform="translate(-2 -3)" fill="#fff"/>
</svg>
