<svg xmlns="http://www.w3.org/2000/svg" width="36" height="27" viewBox="0 0 36 27">
  <path id="ic_group_24px" d="M24.864,16.143c2.641,0,4.757-2.489,4.757-5.571S27.5,5,24.864,5s-4.773,2.489-4.773,5.571S22.223,16.143,24.864,16.143Zm-12.727,0c2.641,0,4.757-2.489,4.757-5.571S14.777,5,12.136,5,7.364,7.489,7.364,10.571,9.5,16.143,12.136,16.143Zm0,3.714C8.43,19.857,1,22.03,1,26.357V31H23.273V26.357C23.273,22.03,15.843,19.857,12.136,19.857Zm12.727,0c-.461,0-.986.037-1.543.093a8.182,8.182,0,0,1,3.134,6.407V31H36V26.357C36,22.03,28.57,19.857,24.864,19.857Z" transform="translate(-0.5 -4.5)" fill="#e53a88" stroke="#7c21ff" stroke-width="1"/>
</svg>
