<svg xmlns="http://www.w3.org/2000/svg" id="ic_hearing_24px" width="18" height="20.78" viewBox="0 0 18 20.78"><path id="ic_hearing_24px-2" fill="#fff" d="M17,20a1.9,1.9,0,0,1-.76-.15,3.475,3.475,0,0,1-1.71-2.38,5.892,5.892,0,0,0-2.39-3,7.6,7.6,0,0,1-2.32-2.53A6.264,6.264,0,0,1,9,9,5,5,0,0,1,19,9h2a6.92,6.92,0,0,0-7-7A6.92,6.92,0,0,0,7,9a8.278,8.278,0,0,0,1.07,3.9,9.533,9.533,0,0,0,2.85,3.15,4.028,4.028,0,0,1,1.71,2.05,5.443,5.443,0,0,0,2.73,3.55A4,4,0,0,0,21,18H19a2.006,2.006,0,0,1-2,2ZM7.64,2.64,6.22,1.22a11.009,11.009,0,0,0,0,15.56l1.41-1.41A9.005,9.005,0,0,1,7.64,2.64ZM11.5,9A2.5,2.5,0,1,0,14,6.5,2.5,2.5,0,0,0,11.5,9Z" data-name="ic_hearing_24px" transform="translate(-3 -1.22)"/></svg>