<svg xmlns="http://www.w3.org/2000/svg" width="44.647" height="47.861" viewBox="0 0 44.647 47.861">
  <g id="music_1_" data-name="music (1)" transform="translate(-0.164 0)">
    <path id="Path_12" data-name="Path 12" d="M21.193,42.058a21.12,21.12,0,0,0,4.775-.546,9.812,9.812,0,0,0,3.246,4.376A9.724,9.724,0,1,0,40.262,29.906a20.8,20.8,0,0,0,1.96-8.877A21.029,21.029,0,1,0,21.193,42.058Zm22.26-3.92a8.362,8.362,0,1,1-4.4-7.367,8.362,8.362,0,0,1,4.4,7.367ZM21.193,1.357A19.694,19.694,0,0,1,40.865,21.029a19.448,19.448,0,0,1-1.8,8.236A9.727,9.727,0,0,0,25.585,40.208,19.674,19.674,0,1,1,21.193,1.357Zm0,0" transform="translate(0 0)" fill="#fff"/>
    <path id="Path_13" data-name="Path 13" d="M94.122,100.589a3.717,3.717,0,0,0,3.958-3.406V85.64l12.435-3.067v6.163a4.324,4.324,0,0,0-2.6-.842,3.445,3.445,0,1,0,3.958,3.406V76.312a.678.678,0,0,0-.841-.658l-13.791,3.4a.678.678,0,0,0-.516.658V94.62a4.323,4.323,0,0,0-2.6-.842,3.444,3.444,0,1,0,0,6.811Zm13.792-7.241a2.108,2.108,0,1,1,2.6-2.049,2.378,2.378,0,0,1-2.6,2.049Zm-9.834-13.1,12.435-3.067v4L98.08,84.242Zm-3.958,14.89a2.108,2.108,0,1,1-2.6,2.049A2.378,2.378,0,0,1,94.122,95.134Zm0,0" transform="translate(-79.825 -67.083)" fill="#fff"/>
    <path id="Path_14" data-name="Path 14" d="M273.369,300.285v-3.279a.678.678,0,1,0-1.357,0v3.279h-3.279a.678.678,0,1,0,0,1.357h3.279v3.279a.678.678,0,1,0,1.357,0v-3.279h3.279a.678.678,0,1,0,0-1.357Zm0,0" transform="translate(-237.603 -262.825)" fill="#fff"/>
  </g>
</svg>
