<svg xmlns="http://www.w3.org/2000/svg" width="27.181" height="24.917" viewBox="0 0 27.181 24.917"><g id="repeat" transform="translate(0 -21.322)"><g id="Group_6" data-name="Group 6" transform="translate(0 21.322)"><g id="Group_5" data-name="Group 5" transform="translate(0 0)"><path id="Path_10" fill="#fff" d="M159.529,24.72H153.19l1.464-1.464a1.133,1.133,0,0,0-1.6-1.6l-3.4,3.4c-.026.026-.051.054-.075.083-.011.013-.02.027-.03.04s-.025.032-.036.049-.02.033-.03.049-.019.03-.027.046-.017.034-.025.051-.016.032-.023.049-.012.034-.019.051-.013.036-.019.054-.009.034-.013.051-.01.037-.014.056-.006.04-.009.06-.006.033-.007.05c0,.037-.006.074-.006.111h0q0,.055.006.111c0,.017,0,.033.007.05s.005.04.009.06.009.038.014.056.008.034.013.051.012.036.019.054.012.034.018.05.015.033.023.049.016.034.025.051.018.031.027.046.019.033.03.049.024.033.036.049.019.027.03.04c.024.029.049.057.075.083l3.4,3.4a1.133,1.133,0,1,0,1.6-1.6l-1.464-1.464h6.326a6.79,6.79,0,0,1,6.8,6.8,6.146,6.146,0,0,1-1.811,4.355,1.133,1.133,0,1,0,1.6,1.6,8.41,8.41,0,0,0,2.474-5.956A9.055,9.055,0,0,0,159.529,24.72Z" data-name="Path 10" transform="translate(-141.395 -21.322)"/><path id="Path_11" fill="#fff" d="M19.027,152.434c.012-.016.025-.032.036-.049s.02-.033.03-.049.019-.03.027-.046.017-.034.025-.051.016-.032.023-.049.013-.034.019-.051.013-.036.019-.054.009-.034.013-.051.01-.037.014-.056.006-.04.009-.06.006-.033.007-.049a1.14,1.14,0,0,0,0-.224c0-.017,0-.033-.007-.05s-.005-.04-.009-.06-.009-.037-.014-.056-.008-.034-.013-.051-.012-.036-.019-.054-.012-.034-.019-.051-.015-.033-.023-.049-.016-.035-.025-.052-.018-.03-.027-.046-.019-.033-.03-.049-.024-.032-.036-.048-.02-.027-.03-.041c-.023-.028-.048-.056-.074-.082h0l-3.4-3.4a1.133,1.133,0,0,0-1.6,1.6l1.464,1.464H9.061a6.79,6.79,0,0,1-6.8-6.8,6.146,6.146,0,0,1,1.811-4.355,1.133,1.133,0,0,0-1.6-1.6A8.41,8.41,0,0,0,0,143.828a9.055,9.055,0,0,0,9.048,9.061h6.339l-1.464,1.464a1.133,1.133,0,0,0,1.6,1.6l3.4-3.4h0c.026-.026.051-.054.074-.082C19.008,152.461,19.017,152.447,19.027,152.434Z" data-name="Path 11" transform="translate(0 -131.37)"/></g></g></g></svg>