<svg xmlns="http://www.w3.org/2000/svg" width="27.094" height="24.258" viewBox="0 0 27.094 24.258">
  <g id="shuffle" transform="translate(0 -25.65)">
    <g id="Group_4" data-name="Group 4" transform="translate(0 25.65)">
      <path id="Path_7" data-name="Path 7" d="M10.752,283.769l.829-1.338a.679.679,0,0,0-1.155-.713L9.6,283.056c-1.5,2.427-3.649,3.82-5.893,3.82H.674a.68.68,0,0,0,0,1.36H3.709C6.435,288.225,9,286.6,10.752,283.769Z" transform="translate(0 -267.257)" fill="#fff"/>
      <path id="Path_8" data-name="Path 8" d="M265.85,29.138l-3.284-3.289a.676.676,0,1,0-.956.956l2.134,2.134H260.6c-2.72,0-5.29,1.625-7.043,4.456l-.509.824a.676.676,0,0,0,.221.934.686.686,0,0,0,.354.1.679.679,0,0,0,.575-.321l.509-.824c1.5-2.427,3.649-3.814,5.893-3.814h3.14L261.6,32.428a.678.678,0,0,0,.962.956l3.289-3.289A.679.679,0,0,0,265.85,29.138Zm-1.443.486V29.6l.011.011Z" transform="translate(-238.961 -25.65)" fill="#fff"/>
      <path id="Path_9" data-name="Path 9" d="M22.643,105.919a.681.681,0,0,0,.962,0l3.289-3.289a.674.674,0,0,0,0-.956L23.605,98.39a.676.676,0,1,0-.956.956l2.134,2.134H21.737c-2.239,0-4.389-1.393-5.893-3.82l-4.986-8.055C9.1,86.77,6.534,85.15,3.814,85.15H.674a.68.68,0,0,0,0,1.36H3.809C6.048,86.51,8.2,87.9,9.7,90.324l4.986,8.055c1.752,2.836,4.323,4.461,7.043,4.461h3.046l-2.134,2.134A.671.671,0,0,0,22.643,105.919Zm2.8-3.776.011.011-.011.011v-.022Z" transform="translate(0 -81.861)" fill="#fff"/>
    </g>
  </g>
</svg>
